<mxfile host="app.diagrams.net" modified="2022-05-11T10:09:52.249Z" agent="5.0 (Windows NT 10.0; Win64; x64) AppleWebKit/537.36 (KHTML, like Gecko) Chrome/101.0.4951.54 Safari/537.36" etag="4te6QHHSnbfUwrJT9sYs" version="18.0.2" type="github">
  <diagram name="Page-1" id="74e2e168-ea6b-b213-b513-2b3c1d86103e">
    <mxGraphModel dx="1490" dy="581" grid="1" gridSize="10" guides="1" tooltips="1" connect="1" arrows="1" fold="1" page="1" pageScale="1" pageWidth="900" pageHeight="1600" background="none" math="0" shadow="0">
      <root>
        <mxCell id="0" />
        <mxCell id="1" parent="0" />
        <mxCell id="77e6c97f196da883-1" value="Pool" style="swimlane;html=1;childLayout=stackLayout;startSize=20;rounded=0;shadow=0;labelBackgroundColor=none;strokeWidth=1;fontFamily=Verdana;fontSize=8;align=center;" parent="1" vertex="1">
          <mxGeometry x="70" y="40" width="960" height="1500" as="geometry" />
        </mxCell>
        <mxCell id="77e6c97f196da883-2" value="H5" style="swimlane;html=1;startSize=20;" parent="77e6c97f196da883-1" vertex="1">
          <mxGeometry y="20" width="430" height="1480" as="geometry" />
        </mxCell>
        <mxCell id="77e6c97f196da883-8" value="登录（静默/手动）" style="rounded=1;whiteSpace=wrap;html=1;shadow=0;labelBackgroundColor=none;strokeWidth=1;fontFamily=Verdana;fontSize=8;align=center;" parent="77e6c97f196da883-2" vertex="1">
          <mxGeometry x="190" y="40" width="100" height="60" as="geometry" />
        </mxCell>
        <mxCell id="K9ccc-GiR_3fYafmZ2pk-2" value="" style="edgeStyle=orthogonalEdgeStyle;rounded=0;orthogonalLoop=1;jettySize=auto;html=1;" edge="1" parent="77e6c97f196da883-2" source="77e6c97f196da883-9" target="K9ccc-GiR_3fYafmZ2pk-1">
          <mxGeometry relative="1" as="geometry" />
        </mxCell>
        <mxCell id="77e6c97f196da883-9" value="获取更新数据（&lt;b&gt;新版本号、更新内容、URL&lt;/b&gt;），写入vuex" style="rounded=1;whiteSpace=wrap;html=1;shadow=0;labelBackgroundColor=none;strokeWidth=1;fontFamily=Verdana;fontSize=8;align=center;" parent="77e6c97f196da883-2" vertex="1">
          <mxGeometry x="190" y="200" width="100" height="60" as="geometry" />
        </mxCell>
        <mxCell id="K9ccc-GiR_3fYafmZ2pk-5" value="" style="edgeStyle=orthogonalEdgeStyle;rounded=0;orthogonalLoop=1;jettySize=auto;html=1;" edge="1" parent="77e6c97f196da883-2" source="K9ccc-GiR_3fYafmZ2pk-1" target="K9ccc-GiR_3fYafmZ2pk-4">
          <mxGeometry relative="1" as="geometry" />
        </mxCell>
        <mxCell id="K9ccc-GiR_3fYafmZ2pk-8" value="" style="edgeStyle=orthogonalEdgeStyle;rounded=0;orthogonalLoop=1;jettySize=auto;html=1;" edge="1" parent="77e6c97f196da883-2" source="K9ccc-GiR_3fYafmZ2pk-1" target="K9ccc-GiR_3fYafmZ2pk-7">
          <mxGeometry relative="1" as="geometry" />
        </mxCell>
        <mxCell id="K9ccc-GiR_3fYafmZ2pk-1" value="进入首页，判断是否有更新" style="rhombus;whiteSpace=wrap;html=1;fontSize=8;fontFamily=Verdana;rounded=1;shadow=0;labelBackgroundColor=none;strokeWidth=1;" vertex="1" parent="77e6c97f196da883-2">
          <mxGeometry x="220" y="310" width="160" height="115" as="geometry" />
        </mxCell>
        <mxCell id="K9ccc-GiR_3fYafmZ2pk-4" value="不弹出提示" style="shape=tape;whiteSpace=wrap;html=1;fontSize=8;fontFamily=Verdana;rounded=1;shadow=0;labelBackgroundColor=none;strokeWidth=1;" vertex="1" parent="77e6c97f196da883-2">
          <mxGeometry x="10" y="292.5" width="120" height="100" as="geometry" />
        </mxCell>
        <mxCell id="K9ccc-GiR_3fYafmZ2pk-6" value="最新版本/已忽略" style="text;html=1;strokeColor=none;fillColor=none;align=center;verticalAlign=middle;whiteSpace=wrap;rounded=0;" vertex="1" parent="77e6c97f196da883-2">
          <mxGeometry x="150" y="310" width="60" height="30" as="geometry" />
        </mxCell>
        <mxCell id="K9ccc-GiR_3fYafmZ2pk-11" value="" style="edgeStyle=orthogonalEdgeStyle;rounded=0;orthogonalLoop=1;jettySize=auto;html=1;" edge="1" parent="77e6c97f196da883-2" source="K9ccc-GiR_3fYafmZ2pk-7" target="K9ccc-GiR_3fYafmZ2pk-10">
          <mxGeometry relative="1" as="geometry" />
        </mxCell>
        <mxCell id="K9ccc-GiR_3fYafmZ2pk-18" value="" style="edgeStyle=orthogonalEdgeStyle;rounded=0;orthogonalLoop=1;jettySize=auto;html=1;" edge="1" parent="77e6c97f196da883-2" source="K9ccc-GiR_3fYafmZ2pk-7" target="K9ccc-GiR_3fYafmZ2pk-17">
          <mxGeometry relative="1" as="geometry" />
        </mxCell>
        <mxCell id="K9ccc-GiR_3fYafmZ2pk-7" value="是否为强制更新" style="rhombus;whiteSpace=wrap;html=1;fontSize=8;fontFamily=Verdana;rounded=1;shadow=0;labelBackgroundColor=none;strokeWidth=1;" vertex="1" parent="77e6c97f196da883-2">
          <mxGeometry x="220" y="460" width="160" height="115" as="geometry" />
        </mxCell>
        <mxCell id="K9ccc-GiR_3fYafmZ2pk-9" value="有更新且未忽略该更新" style="text;html=1;strokeColor=none;fillColor=none;align=center;verticalAlign=middle;whiteSpace=wrap;rounded=0;" vertex="1" parent="77e6c97f196da883-2">
          <mxGeometry x="220" y="425" width="80" height="30" as="geometry" />
        </mxCell>
        <mxCell id="K9ccc-GiR_3fYafmZ2pk-12" value="" style="edgeStyle=orthogonalEdgeStyle;rounded=0;orthogonalLoop=1;jettySize=auto;html=1;startArrow=none;" edge="1" parent="77e6c97f196da883-2" source="K9ccc-GiR_3fYafmZ2pk-13" target="K9ccc-GiR_3fYafmZ2pk-4">
          <mxGeometry relative="1" as="geometry" />
        </mxCell>
        <mxCell id="K9ccc-GiR_3fYafmZ2pk-46" style="edgeStyle=orthogonalEdgeStyle;rounded=0;orthogonalLoop=1;jettySize=auto;html=1;exitX=0.5;exitY=1;exitDx=0;exitDy=0;" edge="1" parent="77e6c97f196da883-2" source="K9ccc-GiR_3fYafmZ2pk-10" target="K9ccc-GiR_3fYafmZ2pk-44">
          <mxGeometry relative="1" as="geometry">
            <Array as="points">
              <mxPoint x="90" y="750" />
            </Array>
          </mxGeometry>
        </mxCell>
        <mxCell id="K9ccc-GiR_3fYafmZ2pk-10" value="弹出更新提示框（非强制版本）" style="whiteSpace=wrap;html=1;fontSize=8;fontFamily=Verdana;rounded=1;shadow=0;labelBackgroundColor=none;strokeWidth=1;" vertex="1" parent="77e6c97f196da883-2">
          <mxGeometry x="30" y="487.5" width="120" height="60" as="geometry" />
        </mxCell>
        <mxCell id="K9ccc-GiR_3fYafmZ2pk-13" value="忽略，native-store存入忽略的版本号" style="text;html=1;strokeColor=none;fillColor=none;align=center;verticalAlign=middle;whiteSpace=wrap;rounded=0;" vertex="1" parent="77e6c97f196da883-2">
          <mxGeometry x="30" y="425" width="110" height="30" as="geometry" />
        </mxCell>
        <mxCell id="K9ccc-GiR_3fYafmZ2pk-14" value="" style="edgeStyle=orthogonalEdgeStyle;rounded=0;orthogonalLoop=1;jettySize=auto;html=1;endArrow=none;" edge="1" parent="77e6c97f196da883-2" source="K9ccc-GiR_3fYafmZ2pk-10" target="K9ccc-GiR_3fYafmZ2pk-13">
          <mxGeometry relative="1" as="geometry">
            <mxPoint x="160" y="547.5" as="sourcePoint" />
            <mxPoint x="140" y="452.5" as="targetPoint" />
          </mxGeometry>
        </mxCell>
        <mxCell id="K9ccc-GiR_3fYafmZ2pk-15" value="非强制" style="text;html=1;strokeColor=none;fillColor=none;align=center;verticalAlign=middle;whiteSpace=wrap;rounded=0;" vertex="1" parent="77e6c97f196da883-2">
          <mxGeometry x="160" y="490" width="60" height="30" as="geometry" />
        </mxCell>
        <mxCell id="K9ccc-GiR_3fYafmZ2pk-45" value="" style="edgeStyle=orthogonalEdgeStyle;rounded=0;orthogonalLoop=1;jettySize=auto;html=1;" edge="1" parent="77e6c97f196da883-2" source="K9ccc-GiR_3fYafmZ2pk-17" target="K9ccc-GiR_3fYafmZ2pk-44">
          <mxGeometry relative="1" as="geometry" />
        </mxCell>
        <mxCell id="K9ccc-GiR_3fYafmZ2pk-17" value="弹出更新提示（强制版本）" style="whiteSpace=wrap;html=1;fontSize=8;fontFamily=Verdana;rounded=1;shadow=0;labelBackgroundColor=none;strokeWidth=1;" vertex="1" parent="77e6c97f196da883-2">
          <mxGeometry x="240" y="620" width="120" height="60" as="geometry" />
        </mxCell>
        <mxCell id="K9ccc-GiR_3fYafmZ2pk-44" value="点击更新，调用&lt;b&gt;某client接口&lt;/b&gt;，传入id=1、VersionCode、vuex存入的下载url" style="whiteSpace=wrap;html=1;fontSize=8;fontFamily=Verdana;rounded=1;shadow=0;labelBackgroundColor=none;strokeWidth=1;" vertex="1" parent="77e6c97f196da883-2">
          <mxGeometry x="200" y="720" width="200" height="60" as="geometry" />
        </mxCell>
        <mxCell id="K9ccc-GiR_3fYafmZ2pk-61" style="edgeStyle=orthogonalEdgeStyle;rounded=0;orthogonalLoop=1;jettySize=auto;html=1;exitX=0;exitY=0.5;exitDx=0;exitDy=0;entryX=0.083;entryY=0.975;entryDx=0;entryDy=0;entryPerimeter=0;fontSize=14;" edge="1" parent="77e6c97f196da883-2" source="K9ccc-GiR_3fYafmZ2pk-54" target="K9ccc-GiR_3fYafmZ2pk-4">
          <mxGeometry relative="1" as="geometry" />
        </mxCell>
        <mxCell id="K9ccc-GiR_3fYafmZ2pk-64" value="" style="edgeStyle=orthogonalEdgeStyle;rounded=0;orthogonalLoop=1;jettySize=auto;html=1;fontSize=14;" edge="1" parent="77e6c97f196da883-2" source="K9ccc-GiR_3fYafmZ2pk-54">
          <mxGeometry relative="1" as="geometry">
            <mxPoint x="300" y="1150" as="targetPoint" />
          </mxGeometry>
        </mxCell>
        <mxCell id="K9ccc-GiR_3fYafmZ2pk-54" value="监听到下载完毕，&lt;b&gt;非强制更新显示是否安装的确认框&lt;/b&gt;" style="whiteSpace=wrap;html=1;fontSize=8;fontFamily=Verdana;rounded=1;shadow=0;labelBackgroundColor=none;strokeWidth=1;" vertex="1" parent="77e6c97f196da883-2">
          <mxGeometry x="240" y="1050" width="120" height="60" as="geometry" />
        </mxCell>
        <mxCell id="K9ccc-GiR_3fYafmZ2pk-57" style="edgeStyle=orthogonalEdgeStyle;rounded=0;orthogonalLoop=1;jettySize=auto;html=1;exitX=0.5;exitY=1;exitDx=0;exitDy=0;entryX=0.5;entryY=0;entryDx=0;entryDy=0;fontSize=14;" edge="1" parent="77e6c97f196da883-2" source="K9ccc-GiR_3fYafmZ2pk-55" target="K9ccc-GiR_3fYafmZ2pk-54">
          <mxGeometry relative="1" as="geometry" />
        </mxCell>
        <mxCell id="K9ccc-GiR_3fYafmZ2pk-55" value="强制更新不关弹窗，&lt;b&gt;是否在弹窗内显示进度条？？&lt;/b&gt;" style="whiteSpace=wrap;html=1;fontSize=8;fontFamily=Verdana;rounded=1;shadow=0;labelBackgroundColor=none;strokeWidth=1;fillColor=#f8cecc;strokeColor=#b85450;" vertex="1" parent="77e6c97f196da883-2">
          <mxGeometry x="240" y="940" width="120" height="60" as="geometry" />
        </mxCell>
        <mxCell id="K9ccc-GiR_3fYafmZ2pk-62" value="非强制，点击暂不安装" style="text;html=1;strokeColor=none;fillColor=none;align=center;verticalAlign=middle;whiteSpace=wrap;rounded=0;fontSize=14;" vertex="1" parent="77e6c97f196da883-2">
          <mxGeometry x="20" y="1050" width="150" height="30" as="geometry" />
        </mxCell>
        <mxCell id="K9ccc-GiR_3fYafmZ2pk-67" style="edgeStyle=orthogonalEdgeStyle;rounded=0;orthogonalLoop=1;jettySize=auto;html=1;exitX=0;exitY=0.5;exitDx=0;exitDy=0;exitPerimeter=0;entryX=0;entryY=1;entryDx=0;entryDy=0;fontSize=14;" edge="1" parent="77e6c97f196da883-2" source="K9ccc-GiR_3fYafmZ2pk-66" target="K9ccc-GiR_3fYafmZ2pk-62">
          <mxGeometry relative="1" as="geometry" />
        </mxCell>
        <mxCell id="K9ccc-GiR_3fYafmZ2pk-66" value="&#xa;&lt;span style=&quot;color: rgb(0, 0, 0); font-family: Verdana; font-size: 8px; font-style: normal; font-variant-ligatures: normal; font-variant-caps: normal; font-weight: 400; letter-spacing: normal; orphans: 2; text-align: center; text-indent: 0px; text-transform: none; widows: 2; word-spacing: 0px; -webkit-text-stroke-width: 0px; background-color: rgb(248, 249, 250); text-decoration-thickness: initial; text-decoration-style: initial; text-decoration-color: initial; float: none; display: inline !important;&quot;&gt;调用&lt;/span&gt;&lt;b style=&quot;color: rgb(0, 0, 0); font-family: Verdana; font-size: 8px; font-style: normal; font-variant-ligatures: normal; font-variant-caps: normal; letter-spacing: normal; orphans: 2; text-align: center; text-indent: 0px; text-transform: none; widows: 2; word-spacing: 0px; -webkit-text-stroke-width: 0px; background-color: rgb(248, 249, 250); text-decoration-thickness: initial; text-decoration-style: initial; text-decoration-color: initial;&quot;&gt;安装client接口，&lt;/b&gt;&lt;span style=&quot;color: rgb(0, 0, 0); font-family: Verdana; font-size: 8px; font-style: normal; font-variant-ligatures: normal; font-variant-caps: normal; font-weight: 400; letter-spacing: normal; orphans: 2; text-align: center; text-indent: 0px; text-transform: none; widows: 2; word-spacing: 0px; -webkit-text-stroke-width: 0px; background-color: rgb(248, 249, 250); text-decoration-thickness: initial; text-decoration-style: initial; text-decoration-color: initial; float: none; display: inline !important;&quot;&gt;安装新apk&lt;/span&gt;&#xa;&#xa;" style="shape=tape;whiteSpace=wrap;html=1;fontSize=14;" vertex="1" parent="77e6c97f196da883-2">
          <mxGeometry x="240" y="1140" width="120" height="120" as="geometry" />
        </mxCell>
        <mxCell id="K9ccc-GiR_3fYafmZ2pk-68" value="非强制，取消安装" style="text;html=1;strokeColor=none;fillColor=none;align=center;verticalAlign=middle;whiteSpace=wrap;rounded=0;fontSize=14;" vertex="1" parent="77e6c97f196da883-2">
          <mxGeometry x="20" y="1170" width="120" height="30" as="geometry" />
        </mxCell>
        <mxCell id="77e6c97f196da883-26" style="edgeStyle=orthogonalEdgeStyle;rounded=1;html=1;labelBackgroundColor=none;startArrow=none;startFill=0;startSize=5;endArrow=classicThin;endFill=1;endSize=5;jettySize=auto;orthogonalLoop=1;strokeWidth=1;fontFamily=Verdana;fontSize=8" parent="77e6c97f196da883-1" source="77e6c97f196da883-8" target="77e6c97f196da883-11" edge="1">
          <mxGeometry relative="1" as="geometry" />
        </mxCell>
        <mxCell id="77e6c97f196da883-27" style="edgeStyle=orthogonalEdgeStyle;rounded=1;html=1;labelBackgroundColor=none;startArrow=none;startFill=0;startSize=5;endArrow=classicThin;endFill=1;endSize=5;jettySize=auto;orthogonalLoop=1;strokeWidth=1;fontFamily=Verdana;fontSize=8" parent="77e6c97f196da883-1" source="77e6c97f196da883-11" target="77e6c97f196da883-9" edge="1">
          <mxGeometry relative="1" as="geometry">
            <Array as="points">
              <mxPoint x="240" y="155" />
              <mxPoint x="70" y="155" />
            </Array>
          </mxGeometry>
        </mxCell>
        <mxCell id="77e6c97f196da883-3" value="后端" style="swimlane;html=1;startSize=20;" parent="77e6c97f196da883-1" vertex="1">
          <mxGeometry x="430" y="20" width="190" height="1480" as="geometry" />
        </mxCell>
        <mxCell id="77e6c97f196da883-11" value="登录接口返回更新信息/登陆成功后前端再调用查询更新接口" style="rounded=1;whiteSpace=wrap;html=1;shadow=0;labelBackgroundColor=none;strokeWidth=1;fontFamily=Verdana;fontSize=8;align=center;fillColor=#fff2cc;strokeColor=#d6b656;" parent="77e6c97f196da883-3" vertex="1">
          <mxGeometry x="30" y="65" width="100" height="60" as="geometry" />
        </mxCell>
        <mxCell id="K9ccc-GiR_3fYafmZ2pk-50" value="&lt;b&gt;&lt;font style=&quot;font-size: 24px;&quot;&gt;后端和安卓端详细逻辑不在此展开&lt;/font&gt;&lt;/b&gt;" style="rounded=1;whiteSpace=wrap;html=1;fillColor=#fff2cc;strokeColor=#d6b656;" vertex="1" parent="77e6c97f196da883-3">
          <mxGeometry x="10" y="270" width="150" height="145" as="geometry" />
        </mxCell>
        <mxCell id="K9ccc-GiR_3fYafmZ2pk-53" value="&lt;font style=&quot;font-size: 14px;&quot;&gt;下载进度未完成&lt;/font&gt;" style="text;html=1;strokeColor=none;fillColor=none;align=center;verticalAlign=middle;whiteSpace=wrap;rounded=0;fontSize=24;" vertex="1" parent="77e6c97f196da883-3">
          <mxGeometry x="37.5" y="840" width="115" height="30" as="geometry" />
        </mxCell>
        <mxCell id="K9ccc-GiR_3fYafmZ2pk-59" value="有现成的安装包" style="text;html=1;strokeColor=none;fillColor=none;align=center;verticalAlign=middle;whiteSpace=wrap;rounded=0;fontSize=14;" vertex="1" parent="77e6c97f196da883-3">
          <mxGeometry x="35" y="1050" width="120" height="30" as="geometry" />
        </mxCell>
        <mxCell id="K9ccc-GiR_3fYafmZ2pk-60" value="&lt;b&gt;&lt;font style=&quot;font-size: 24px;&quot;&gt;后端和安卓端详细逻辑不在此展开&lt;/font&gt;&lt;/b&gt;" style="rounded=1;whiteSpace=wrap;html=1;fillColor=#fff2cc;strokeColor=#d6b656;" vertex="1" parent="77e6c97f196da883-3">
          <mxGeometry x="20" y="540" width="150" height="145" as="geometry" />
        </mxCell>
        <mxCell id="K9ccc-GiR_3fYafmZ2pk-47" value="安卓端" style="swimlane;" vertex="1" parent="77e6c97f196da883-1">
          <mxGeometry x="620" y="20" width="200" height="1480" as="geometry" />
        </mxCell>
        <mxCell id="K9ccc-GiR_3fYafmZ2pk-48" value="弹出授权/开始下载任务&lt;br&gt;&lt;br&gt;返回调用结果，&lt;b&gt;之后H5监听download-progress事件&lt;/b&gt;" style="whiteSpace=wrap;html=1;fontSize=8;fontFamily=Verdana;rounded=1;shadow=0;labelBackgroundColor=none;strokeWidth=1;fillColor=#fff2cc;strokeColor=#d6b656;" vertex="1" parent="K9ccc-GiR_3fYafmZ2pk-47">
          <mxGeometry x="10" y="695" width="180" height="110" as="geometry" />
        </mxCell>
        <mxCell id="K9ccc-GiR_3fYafmZ2pk-49" value="" style="edgeStyle=orthogonalEdgeStyle;rounded=0;orthogonalLoop=1;jettySize=auto;html=1;" edge="1" parent="77e6c97f196da883-1" source="K9ccc-GiR_3fYafmZ2pk-44" target="K9ccc-GiR_3fYafmZ2pk-48">
          <mxGeometry relative="1" as="geometry" />
        </mxCell>
        <mxCell id="K9ccc-GiR_3fYafmZ2pk-58" style="edgeStyle=orthogonalEdgeStyle;rounded=0;orthogonalLoop=1;jettySize=auto;html=1;exitX=0.5;exitY=1;exitDx=0;exitDy=0;fontSize=14;" edge="1" parent="77e6c97f196da883-1" source="K9ccc-GiR_3fYafmZ2pk-48" target="K9ccc-GiR_3fYafmZ2pk-54">
          <mxGeometry relative="1" as="geometry">
            <Array as="points">
              <mxPoint x="720" y="1100" />
            </Array>
          </mxGeometry>
        </mxCell>
        <mxCell id="K9ccc-GiR_3fYafmZ2pk-56" value="" style="edgeStyle=orthogonalEdgeStyle;rounded=0;orthogonalLoop=1;jettySize=auto;html=1;fontSize=14;" edge="1" parent="1" source="K9ccc-GiR_3fYafmZ2pk-51" target="K9ccc-GiR_3fYafmZ2pk-55">
          <mxGeometry relative="1" as="geometry" />
        </mxCell>
        <mxCell id="K9ccc-GiR_3fYafmZ2pk-51" value="开始下载，非强制更新关闭弹窗" style="whiteSpace=wrap;html=1;fontSize=8;fontFamily=Verdana;rounded=1;shadow=0;labelBackgroundColor=none;strokeWidth=1;" vertex="1" parent="1">
          <mxGeometry x="310" y="900" width="120" height="60" as="geometry" />
        </mxCell>
        <mxCell id="K9ccc-GiR_3fYafmZ2pk-52" value="" style="edgeStyle=orthogonalEdgeStyle;rounded=0;orthogonalLoop=1;jettySize=auto;html=1;fontSize=24;" edge="1" parent="1" source="K9ccc-GiR_3fYafmZ2pk-48" target="K9ccc-GiR_3fYafmZ2pk-51">
          <mxGeometry relative="1" as="geometry">
            <Array as="points">
              <mxPoint x="790" y="930" />
            </Array>
          </mxGeometry>
        </mxCell>
      </root>
    </mxGraphModel>
  </diagram>
</mxfile>
